<svg width="340" height="112" viewBox="0 0 340 112" xmlns="http://www.w3.org/2000/svg"><title>Logo Viral</title><g fill="#F5576C" fill-rule="evenodd"><path d="M67.704 69.01a14.085 14.085 0 0 1 3.68 9.514c0 7.807-6.328 14.136-14.136 14.136-7.807 0-14.137-6.329-14.137-14.136 0-4.49 2.094-8.492 5.358-11.081L34.617 42.455a7.711 7.711 0 1 1 4.79-2.703l13.956 25.175a14.146 14.146 0 0 1 3.885-.54c2.142 0 4.173.476 5.993 1.33l22.072-39.82a11.524 11.524 0 0 1-3.004-7.776 11.55 11.55 0 0 1 4.675-9.29l-5.568-5.667c-1.16-1.182-3.447-2.152-5.104-2.166L36.577.65c-1.657-.015-3.959.915-5.141 2.077L3.094 30.58C1.912 31.74.942 34.027.927 35.684L.581 75.419c-.015 1.657.915 3.959 2.077 5.141l27.851 28.342c1.162 1.182 3.447 2.152 5.105 2.167l39.734.347c1.657.014 3.96-.916 5.142-2.078l28.342-27.851c1.182-1.162 2.152-3.447 2.166-5.105l.347-39.734c.015-1.657-.915-3.96-2.077-5.142l-6.224-6.333a11.547 11.547 0 0 1-9.169 4.514c-1.4 0-2.742-.248-3.984-.704L67.704 69.009z"/><path d="M172.256 24.467l1.28-.192a36.113 36.113 0 0 1 3.405-.353 60.032 60.032 0 0 1 6.397 0c1.095.059 2.23.177 3.405.353l2.33.35-20.487 63.493-1.237.177a54.324 54.324 0 0 1-3.513.39 47.287 47.287 0 0 1-7.035 0 71.768 71.768 0 0 1-3.61-.387l-1.26-.164-20.339-63.584 2.411-.284a127.29 127.29 0 0 1 3.31-.34 38.39 38.39 0 0 1 3.44-.174c2.213 0 4.535.174 6.965.52l1.296.186 11.549 41.709 11.693-41.7zm26.733 17.271c.237-.268.494-.436.774-.56a3.31 3.31 0 0 1 .847-.235c.402-.064.916-.101 1.564-.121 1.052-.032 2.465-.017 4.162.036.886.028 1.824.066 2.789.11a242.43 242.43 0 0 1 3.077.163l1.878.115V88.01l-1.671.279a37.548 37.548 0 0 1-6.177.528c-1.95 0-3.982-.177-6.093-.528l-1.67-.279v-44.8a2.066 2.066 0 0 1 .52-1.472zm-.073-5.071a29.453 29.453 0 0 1-.458-5.125c0-1.638.153-3.343.456-5.116l.238-1.387 1.386-.245a28.93 28.93 0 0 1 2.797-.345 35.22 35.22 0 0 1 2.685-.113c.86 0 1.79.038 2.788.113 1.015.076 1.96.19 2.836.345l1.379.244.243 1.378a23 23 0 0 1 .312 2.616 41.483 41.483 0 0 1 0 4.98c-.052.886-.156 1.77-.312 2.655l-.243 1.378-1.379.244c-.892.157-1.84.261-2.848.313-.96.049-1.861.074-2.705.074-.796 0-1.684-.025-2.667-.074a23.344 23.344 0 0 1-2.886-.313l-1.379-.244-.243-1.378zm43.18 6.417c2.15-1.645 4.805-2.458 7.9-2.458.611 0 1.302.03 2.074.09.873.066 1.543.172 2.066.347l1.101.367.228 1.138c.128.64.222 1.36.283 2.16.06.776.09 1.579.09 2.409 0 .999-.044 2.078-.131 3.24a24.318 24.318 0 0 1-.502 3.459l-.417 1.878-1.893-.344a9.517 9.517 0 0 0-1.689-.135h-1.378c-.83 0-1.78.087-2.845.265-.826.137-1.63.51-2.431 1.142-.768.607-1.451 1.582-2.025 2.959-.579 1.39-.89 3.482-.89 6.248v22.244l-1.671.278c-1.075.18-2.15.299-3.226.358a52.515 52.515 0 0 1-6.03 0 32.858 32.858 0 0 1-3.247-.355l-1.688-.267v-46.62l1.607-.321a29.84 29.84 0 0 1 2.553-.403 24.386 24.386 0 0 1 2.685-.137c.926 0 1.839.062 2.737.186a34.65 34.65 0 0 1 2.527.443l.849.182.447.745c.28.465.495 1.034.678 1.73.077.292.15.59.218.895a24.954 24.954 0 0 1 2.02-1.723zm45.427 25.13a17.872 17.872 0 0 0-1.875-.115c-2.388 0-4.192.408-5.428 1.166-.965.593-1.427 1.51-1.427 3.016 0 1.035.188 1.72.492 2.106.405.516.87.875 1.414 1.103a7.09 7.09 0 0 0 2.154.52c.921.08 1.715.118 2.377.118.725 0 1.45-.06 2.177-.181l.501-.084v-7.607a43.037 43.037 0 0 0-.385-.043zm-.048-12.618a3 3 0 0 0-1.11-1.195c-.536-.325-1.244-.56-2.134-.691a24.405 24.405 0 0 0-3.512-.23c-2.775 0-5.76.546-8.955 1.646l-1.607.553-.805-1.496c-.84-1.56-1.476-3.044-1.907-4.46-.452-1.484-.671-3.208-.671-5.176v-1.431l1.354-.462a46.355 46.355 0 0 1 7.683-1.92c2.55-.406 4.938-.61 7.164-.61 6.236 0 11.22 1.534 14.874 4.657 3.754 3.209 5.587 8.222 5.587 14.886v26.529l-1.4.44c-2.024.636-4.458 1.237-7.308 1.807-2.921.584-6.198.874-9.832.874-2.974 0-5.716-.264-8.225-.795-2.615-.554-4.893-1.49-6.818-2.815a13.801 13.801 0 0 1-4.58-5.264c-1.069-2.137-1.59-4.695-1.59-7.66 0-3.032.665-5.643 2.02-7.793a15.205 15.205 0 0 1 5.09-4.991c2.004-1.202 4.23-2.062 6.67-2.58a34.07 34.07 0 0 1 7.099-.754c1.027 0 2.116.032 3.267.097-.072-.476-.193-.864-.354-1.166zM316.3 23.278a38.034 38.034 0 0 1 6.26-.529c2.005 0 4.064.177 6.176.529l1.67.278v45.55c0 1.615.09 2.893.26 3.815.146.792.353 1.347.58 1.664.173.243.368.388.634.476.443.148 1.07.232 1.873.232.372 0 .79-.024 1.253-.073.454-.047.894-.119 1.32-.214l1.87-.415.496 1.85c.657 2.448.987 4.85.987 7.2v1.212a7 7 0 0 1-.226 1.696l-.273 1.09-1.071.334c-1.04.325-2.25.545-3.636.668a41.34 41.34 0 0 1-3.644.175c-4.763 0-8.685-1.35-11.666-4.074-3.061-2.798-4.535-7.187-4.535-13.046v-48.14l1.672-.278z" fill-rule="nonzero"/></g></svg>